REM DIRINDEX 1\2,1\3
REM DIRNAME folder01,folder02,folder03
TITLE ""
FILE "2000 phrasesTrack59.mp3" MP3
  TRACK 01 AUDIO
    TITLE "2:cjc143_2222"
    INDEX 01 00:00:00
  TRACK 02 AUDIO
    TITLE "0:"
    INDEX 01 00:00:64
  TRACK 03 AUDIO
    TITLE "2:cjc143_2223"
    INDEX 01 00:01:32
  TRACK 04 AUDIO
    TITLE "0:"
    INDEX 01 00:02:47
  TRACK 05 AUDIO
    TITLE "2:cjc143_2224"
    INDEX 01 00:03:23
  TRACK 06 AUDIO
    TITLE "0:"
    INDEX 01 00:04:50
  TRACK 07 AUDIO
    TITLE "2:cjc143_2225"
    INDEX 01 00:05:22
  TRACK 08 AUDIO
    TITLE "0:"
    INDEX 01 00:06:39
  TRACK 09 AUDIO
    TITLE "2:cjc143_2226"
    INDEX 01 00:07:11
  TRACK 10 AUDIO
    TITLE "0:"
    INDEX 01 00:08:36
  TRACK 11 AUDIO
    TITLE "2:cjc143_2227"
    INDEX 01 00:09:12
  TRACK 12 AUDIO
    TITLE "0:"
    INDEX 01 00:10:35
  TRACK 13 AUDIO
    TITLE "2:cjc143_2228"
    INDEX 01 00:11:05
  TRACK 14 AUDIO
    TITLE "0:"
    INDEX 01 00:12:36
  TRACK 15 AUDIO
    TITLE "2:cjc143_2229"
    INDEX 01 00:13:08
  TRACK 16 AUDIO
    TITLE "0:"
    INDEX 01 00:14:54
  TRACK 17 AUDIO
    TITLE "2:cjc143_2230"
    INDEX 01 00:15:23
  TRACK 18 AUDIO
    TITLE "0:"
    INDEX 01 00:16:73
  TRACK 19 AUDIO
    TITLE "2:cjc143_2231"
    INDEX 01 00:17:45
  TRACK 20 AUDIO
    TITLE "0:"
    INDEX 01 00:18:70
  TRACK 21 AUDIO
    TITLE "2:cjc143_2232"
    INDEX 01 00:19:52
  TRACK 22 AUDIO
    TITLE "0:"
    INDEX 01 00:21:23
  TRACK 23 AUDIO
    TITLE "2:cjc143_2233"
    INDEX 01 00:21:68
  TRACK 24 AUDIO
    TITLE "0:"
    INDEX 01 00:23:44
  TRACK 25 AUDIO
    TITLE "2:cjc143_2234"
    INDEX 01 00:24:18
  TRACK 26 AUDIO
    TITLE "0:"
    INDEX 01 00:25:46
  TRACK 27 AUDIO
    TITLE "2:cjc143_2235"
    INDEX 01 00:26:13
  TRACK 28 AUDIO
    TITLE "0:"
    INDEX 01 00:27:43
  TRACK 29 AUDIO
    TITLE "2:cjc143_2236"
    INDEX 01 00:28:13
  TRACK 30 AUDIO
    TITLE "0:"
    INDEX 01 00:29:52
  TRACK 31 AUDIO
    TITLE "2:cjc143_2237"
    INDEX 01 00:30:28
  TRACK 32 AUDIO
    TITLE "0:"
    INDEX 01 00:32:11
  TRACK 33 AUDIO
    TITLE "2:cjc143_2238"
    INDEX 01 00:32:54
  TRACK 34 AUDIO
    TITLE "0:"
    INDEX 01 00:34:26
  TRACK 35 AUDIO
    TITLE "2:cjc143_2239"
    INDEX 01 00:34:69
  TRACK 36 AUDIO
    TITLE "0:"
    INDEX 01 00:36:31
  TRACK 37 AUDIO
    TITLE "2:cjc143_2240"
    INDEX 01 00:37:01
  TRACK 38 AUDIO
    TITLE "0:"
    INDEX 01 00:38:35
  TRACK 39 AUDIO
    TITLE "2:cjc143_2241"
    INDEX 01 00:39:03
  TRACK 40 AUDIO
    TITLE "0:"
    INDEX 01 00:40:60
  TRACK 41 AUDIO
    TITLE "2:cjc143_2242"
    INDEX 01 00:41:30
  TRACK 42 AUDIO
    TITLE "0:"
    INDEX 01 00:43:31
  TRACK 43 AUDIO
    TITLE "2:cjc143_2243"
    INDEX 01 00:44:05
  TRACK 44 AUDIO
    TITLE "0:"
    INDEX 01 00:45:61
  TRACK 45 AUDIO
    TITLE "2:cjc143_2244"
    INDEX 01 00:46:31
  TRACK 46 AUDIO
    TITLE "0:"
    INDEX 01 00:48:14
  TRACK 47 AUDIO
    TITLE "2:cjc143_2245"
    INDEX 01 00:48:59
  TRACK 48 AUDIO
    TITLE "0:"
    INDEX 01 00:50:11
  TRACK 49 AUDIO
    TITLE "2:cjc143_2246"
    INDEX 01 00:50:54
  TRACK 50 AUDIO
    TITLE "0:"
    INDEX 01 00:51:73
  TRACK 51 AUDIO
    TITLE "2:cjc143_2247"
    INDEX 01 00:52:41
  TRACK 52 AUDIO
    TITLE "0:"
    INDEX 01 00:53:58
  TRACK 53 AUDIO
    TITLE "2:cjc143_2248"
    INDEX 01 00:54:29
  TRACK 54 AUDIO
    TITLE "0:"
    INDEX 01 00:55:71
  TRACK 55 AUDIO
    TITLE "2:cjc143_2249"
    INDEX 01 00:56:43
  TRACK 56 AUDIO
    TITLE "0:"
    INDEX 01 00:58:20
  TRACK 57 AUDIO
    TITLE "2:cjc143_2250"
    INDEX 01 00:58:67
  TRACK 58 AUDIO
    TITLE "0:"
    INDEX 01 01:00:41
  TRACK 59 AUDIO
    TITLE "2:cjc143_2251"
    INDEX 01 01:01:11
  TRACK 60 AUDIO
    TITLE "0:"
    INDEX 01 01:02:71
  TRACK 61 AUDIO
    TITLE "2:cjc143_2252"
    INDEX 01 01:03:37
  TRACK 62 AUDIO
    TITLE "0:"
    INDEX 01 01:05:22
  TRACK 63 AUDIO
    TITLE "2:cjc143_2253"
    INDEX 01 01:05:73
  TRACK 64 AUDIO
    TITLE "0:"
    INDEX 01 01:07:63
  TRACK 65 AUDIO
    TITLE "2:cjc143_2254"
    INDEX 01 01:08:44
  TRACK 66 AUDIO
    TITLE "0:"
    INDEX 01 01:10:00
  TRACK 67 AUDIO
    TITLE "2:cjc143_2255"
    INDEX 01 01:10:43
  TRACK 68 AUDIO
    TITLE "0:"
    INDEX 01 01:12:28
  TRACK 69 AUDIO
    TITLE "2:cjc143_2256"
    INDEX 01 01:13:02
  TRACK 70 AUDIO
    TITLE "0:"
    INDEX 01 01:14:45
  TRACK 71 AUDIO
    TITLE "2:cjc143_2257"
    INDEX 01 01:15:15
  TRACK 72 AUDIO
    TITLE "0:"
    INDEX 01 01:16:46
  TRACK 73 AUDIO
    TITLE "2:cjc143_2258"
    INDEX 01 01:17:16
  TRACK 74 AUDIO
    TITLE "0:"
    INDEX 01 01:18:53
  TRACK 75 AUDIO
    TITLE "2:cjc143_2259"
    INDEX 01 01:19:21
  TRACK 76 AUDIO
    TITLE "0:"
    INDEX 01 01:20:53
  TRACK 77 AUDIO
    TITLE "2:cjc143_2260"
    INDEX 01 01:21:25
  TRACK 78 AUDIO
    TITLE "0:"
    INDEX 01 01:22:70
  TRACK 79 AUDIO
    TITLE "2:cjc143_2261"
    INDEX 01 01:23:48
  TRACK 80 AUDIO
    TITLE "0:"
    INDEX 01 01:25:04
  TRACK 81 AUDIO
    TITLE "2:cjc143_2262"
    INDEX 01 01:25:51
  TRACK 82 AUDIO
    TITLE "0:"
    INDEX 01 01:27:14
  TRACK 83 AUDIO
    TITLE "2:cjc143_2263"
    INDEX 01 01:27:65
  TRACK 84 AUDIO
    TITLE "0:"
    INDEX 01 01:29:33
